<svg width="24" height="24" viewBox="0 0 24 24" fill="none" xmlns="http://www.w3.org/2000/svg">
<g id="Chat">
<path id="Vector" d="M1.6793 18.1223C0.187756 15.6079 -0.334595 12.6355 0.210331 9.76325C0.755258 6.89099 2.32998 4.31645 4.63879 2.52308C6.9476 0.729701 9.83168 -0.159146 12.7495 0.0234408C15.6673 0.206028 18.418 1.44749 20.4853 3.51471C22.5525 5.58192 23.794 8.33269 23.9766 11.2505C24.1592 14.1683 23.2703 17.0523 21.477 19.3612C19.6836 21.67 17.1091 23.2447 14.2368 23.7897C11.3646 24.3346 8.39216 23.8123 5.87777 22.3207L5.8778 22.3206L1.7315 23.5053C1.55995 23.5543 1.37842 23.5565 1.20571 23.5118C1.033 23.467 0.875406 23.3769 0.74925 23.2507C0.623095 23.1246 0.532971 22.967 0.488219 22.7943C0.443467 22.6216 0.445715 22.44 0.494729 22.2685L1.67939 18.1222L1.6793 18.1223Z" fill="white"/>
<path id="Vector_2" d="M12.0049 13.2452C12.6956 13.2452 13.2554 12.6853 13.2554 11.9947C13.2554 11.304 12.6956 10.7441 12.0049 10.7441C11.3143 10.7441 10.7544 11.304 10.7544 11.9947C10.7544 12.6853 11.3143 13.2452 12.0049 13.2452Z" fill="#7B64D6"/>
<path id="Vector_3" d="M18.0074 13.2452C18.698 13.2452 19.2579 12.6853 19.2579 11.9947C19.2579 11.304 18.698 10.7441 18.0074 10.7441C17.3167 10.7441 16.7568 11.304 16.7568 11.9947C16.7568 12.6853 17.3167 13.2452 18.0074 13.2452Z" fill="#7B64D6"/>
<path id="Vector_4" d="M6.00248 13.2452C6.69312 13.2452 7.253 12.6853 7.253 11.9947C7.253 11.304 6.69312 10.7441 6.00248 10.7441C5.31183 10.7441 4.75195 11.304 4.75195 11.9947C4.75195 12.6853 5.31183 13.2452 6.00248 13.2452Z" fill="#7B64D6"/>
</g>
</svg>
