<svg width="20" height="20" viewBox="0 0 20 20" fill="none" xmlns="http://www.w3.org/2000/svg">
<g id="DeviceMobileCamera">
<path id="Vector" d="M13.75 1.25H6.25C5.75335 1.25206 5.27763 1.45026 4.92645 1.80145C4.57526 2.15263 4.37706 2.62835 4.375 3.125V16.875C4.37706 17.3716 4.57526 17.8474 4.92645 18.1986C5.27763 18.5497 5.75335 18.7479 6.25 18.75H13.75C14.2466 18.7479 14.7224 18.5497 15.0736 18.1986C15.4247 17.8474 15.6229 17.3716 15.625 16.875V3.125C15.6229 2.62835 15.4247 2.15263 15.0736 1.80145C14.7224 1.45026 14.2466 1.25206 13.75 1.25ZM10 5.625C9.81458 5.625 9.63332 5.57002 9.47915 5.467C9.32498 5.36399 9.20482 5.21757 9.13386 5.04627C9.06291 4.87496 9.04434 4.68646 9.08051 4.5046C9.11669 4.32275 9.20598 4.1557 9.33709 4.02459C9.4682 3.89348 9.63525 3.80419 9.8171 3.76801C9.99896 3.73184 10.1875 3.75041 10.3588 3.82136C10.5301 3.89232 10.6765 4.01248 10.7795 4.16665C10.8825 4.32082 10.9375 4.50208 10.9375 4.6875C10.9375 4.93614 10.8387 5.1746 10.6629 5.35041C10.4871 5.52623 10.2486 5.625 10 5.625Z" fill="white"/>
</g>
</svg>
