<svg width="24" height="26" viewBox="0 0 24 26" fill="none" xmlns="http://www.w3.org/2000/svg">
<g id="Notification">
<g id="Vector">
<path d="M23.7159 18.8252C22.9727 17.5611 22.0782 15.1568 22.0782 10.906V10.0261C22.0782 4.5359 17.5934 0.0371872 12.0756 7.76585e-06H12C10.676 -0.00162336 9.36476 0.25371 8.14127 0.751384C6.91777 1.24906 5.8061 1.97929 4.86992 2.90027C3.93374 3.82124 3.19145 4.91486 2.68556 6.11848C2.17967 7.3221 1.92012 8.61208 1.92177 9.91453V10.906C1.92177 15.1568 1.02733 17.5611 0.284062 18.8252C0.100352 19.1261 0.0022547 19.4701 3.84046e-05 19.8212C-0.00217789 20.1722 0.0915689 20.5173 0.271465 20.8205C0.447847 21.1236 0.702944 21.3751 1.01063 21.5493C1.31832 21.7236 1.66755 21.8142 2.02256 21.812H21.9774C22.3324 21.8142 22.6817 21.7236 22.9894 21.5493C23.2971 21.3751 23.5522 21.1236 23.7285 20.8205C23.9084 20.5173 24.0022 20.1722 24 19.8212C23.9977 19.4701 23.8996 19.1261 23.7159 18.8252Z" fill="white"/>
<path d="M16.0187 23.7949H7.95616C7.68887 23.7949 7.43253 23.8993 7.24353 24.0853C7.05452 24.2712 6.94834 24.5234 6.94834 24.7863C6.94834 25.0493 7.05452 25.3015 7.24353 25.4874C7.43253 25.6733 7.68887 25.7778 7.95616 25.7778H16.0187C16.286 25.7778 16.5424 25.6733 16.7314 25.4874C16.9204 25.3015 17.0266 25.0493 17.0266 24.7863C17.0266 24.5234 16.9204 24.2712 16.7314 24.0853C16.5424 23.8993 16.286 23.7949 16.0187 23.7949Z" fill="white"/>
</g>
</g>
</svg>
